<svg xmlns="http://www.w3.org/2000/svg" viewBox="0 0 1024 1024"><g id="x1" opacity=".999"><circle fill="&#x23;22111f" cx="512" cy="512" r="512"/></g><g id="x2"><path fill="&#x23;7dffd7" d="M214 752c-20-90-60-180-120-260L40 340c-6 22-11 45-16 67l70 128c60 120 92 240 98 360c20 15 40 27 60 38c-2-70-12-140-32-213z"/></g><g id="x3" transform="translate(0 0)"><path fill="&#x23;f6ff0a" d="M105 201c-12 16-22 32-31 48L480 980c12 2 26 2 38 0L105 201z"/></g><g id="x4" data-a="1"><path fill="&#x23;6bf957" d="M41 310L412 1010c22 4 44 7 62 8L67 264c-10 18-18 34-26 46z"/></g><g id="x5" rotate="0"><path fill="&#x23;df3f2c" d="M119 184L560 1018c18-2 36-5 52-8L152 150c-12 14-23 26-33 34z"/></g></svg>
