<svg xmlns="http://www.w3.org/2000/svg" viewBox="0 0 1024 1024"><circle fill="&#35;1e0a15" cx="512" cy="512" r="512"/><path fill="&#35;89d3e2" d="&#77;214.4&#32;752&#99;-18.9-84.2-49.5-166.5-91-244.6&#76;31.5&#32;334.7&#99;-7.2&#32;19.4-13.2&#32;39.4-18&#32;59.9&#108;71&#32;133.5&#99;64.6&#32;121.5&#32;100.3&#32;252.1&#32;107.3&#32;383.5&#32;14.5&#32;11.6&#32;29.6&#32;22.5&#32;45.4&#32;32.5-.98-64.5-8.6-128.9-22.7-192&#122;"/><path fill="&#35;fee900" d="&#77;105.4&#32;200.9&#99;-10&#32;13.1-19.4&#32;26.7-28.2&#32;40.7&#108;415.8&#32;782.1&#99;5.7.2&#32;11.5.3&#32;17.3.4&#32;10.8.1&#32;21.6-.3&#32;32.3-.9&#76;105.4&#32;200.9&#122;"/><path fill="&#35;72c05d" d="&#77;41.2&#32;310.4&#108;374.7&#32;704.6&#99;17.6&#32;3.3&#32;35.5&#32;5.8&#32;53.7&#32;7.3&#76;65.2&#32;261.7&#99;-8.8&#32;15.7-16.8&#32;31.9-24&#32;48.6&#122;"/><path fill="&#35;ed2224" d="&#77;119&#32;183.9&#108;445.3&#32;837.5&#99;15.6-1.6&#32;31-3.9&#32;46.2-6.8&#76;150.5&#32;149.4&#99;-11&#32;11-21.5&#32;22.5-31.5&#32;34.4&#122;"/></svg>